<svg width="83" height="39" viewBox="0 0 83 39" fill="none" xmlns="http://www.w3.org/2000/svg">
<path d="M29.0445 3.15335V6.8538L7.20203 23.6006V19.9001L29.0445 3.15335Z" fill="white"/>
<path d="M12.4346 0.792802V4.19871L6.03616 7.89845L3.0402 9.63086L0 7.98331L2.99597 6.25066L12.4346 0.792802Z" fill="white"/>
<path d="M12.4346 11.3665V14.7227L3.0402 9.63126L0 7.98372L2.99597 6.25107L6.03616 7.89885L12.4346 11.3665Z" fill="white"/>
<path d="M21.9692 33.5732V33.5734L20.4517 38.207L18.9343 33.5734L14.3575 19.5968H17.3921L20.4517 28.9398L21.9692 33.5732Z" fill="white"/>
<path d="M26.546 19.5967L21.9691 33.5731V33.5734L20.4517 38.207L18.9343 33.5734L20.4517 28.9397L23.5111 19.5967H26.546Z" fill="white"/>
<path d="M34.3701 17.3506L31.2257 7.73874H33.5325L36.265 16.2521H35.1116L37.9677 7.73874H40.0274L42.7736 16.2521H41.6614L44.4626 7.73874H46.5909L43.4464 17.3506H41.0572L38.6268 9.88081H39.2584L36.7593 17.3506H34.3701ZM50.7981 17.4604C49.9559 17.4604 49.2144 17.2957 48.5737 16.9661C47.942 16.6366 47.4523 16.188 47.1044 15.6205C46.7566 15.0437 46.5826 14.3892 46.5826 13.6569C46.5826 12.9154 46.752 12.2609 47.0907 11.6933C47.4385 11.1166 47.91 10.6681 48.505 10.3477C49.1 10.0181 49.7728 9.85335 50.5235 9.85335C51.2467 9.85335 51.8966 10.009 52.4733 10.3202C53.0592 10.6223 53.5215 11.0617 53.8602 11.6384C54.1989 12.206 54.3682 12.8879 54.3682 13.6844C54.3682 13.7667 54.3636 13.8629 54.3545 13.9727C54.3453 14.0734 54.3362 14.1695 54.327 14.2611H48.3265V13.0115H53.2011L52.3772 13.3823C52.3772 12.9978 52.2994 12.6637 52.1438 12.3799C51.9881 12.0961 51.773 11.8764 51.4984 11.7208C51.2238 11.556 50.9034 11.4736 50.5372 11.4736C50.171 11.4736 49.8461 11.556 49.5623 11.7208C49.2877 11.8764 49.0726 12.1007 48.9169 12.3936C48.7613 12.6774 48.6835 13.0161 48.6835 13.4097V13.7393C48.6835 14.1421 48.7705 14.4991 48.9444 14.8103C49.1275 15.1124 49.3792 15.3458 49.6996 15.5106C50.0292 15.6662 50.4136 15.744 50.853 15.744C51.2467 15.744 51.5899 15.6845 51.8829 15.5655C52.185 15.4465 52.4596 15.268 52.7067 15.03L53.8464 16.2658C53.5077 16.6503 53.0821 16.9478 52.5694 17.1583C52.0568 17.3597 51.4664 17.4604 50.7981 17.4604ZM60.1609 17.4604C59.5109 17.4604 58.9525 17.3231 58.4856 17.0485C58.0188 16.7739 57.6618 16.3574 57.4146 15.799C57.1675 15.2314 57.0439 14.5174 57.0439 13.6569C57.0439 12.7872 57.172 12.0732 57.4283 11.5148C57.6938 10.9564 58.06 10.5399 58.5268 10.2653C58.9937 9.99066 59.5384 9.85335 60.1609 9.85335C60.8566 9.85335 61.4791 10.009 62.0283 10.3202C62.5867 10.6314 63.0261 11.0708 63.3465 11.6384C63.676 12.206 63.8408 12.8788 63.8408 13.6569C63.8408 14.4258 63.676 15.0941 63.3465 15.6616C63.0261 16.2292 62.5867 16.6732 62.0283 16.9936C61.4791 17.3048 60.8566 17.4604 60.1609 17.4604ZM55.7943 17.3506V7.16203H57.9364V11.4599L57.7991 13.6432L57.8403 15.8402V17.3506H55.7943ZM59.7901 15.7028C60.1471 15.7028 60.4629 15.6205 60.7376 15.4557C61.0213 15.2909 61.2456 15.0575 61.4104 14.7554C61.5843 14.4441 61.6713 14.078 61.6713 13.6569C61.6713 13.2266 61.5843 12.8605 61.4104 12.5584C61.2456 12.2563 61.0213 12.0229 60.7376 11.8581C60.4629 11.6933 60.1471 11.6109 59.7901 11.6109C59.4331 11.6109 59.1127 11.6933 58.8289 11.8581C58.5452 12.0229 58.3209 12.2563 58.1561 12.5584C57.9913 12.8605 57.9089 13.2266 57.9089 13.6569C57.9089 14.078 57.9913 14.4441 58.1561 14.7554C58.3209 15.0575 58.5452 15.2909 58.8289 15.4557C59.1127 15.6205 59.4331 15.7028 59.7901 15.7028ZM67.6302 17.5154C66.962 17.5154 66.2983 17.4284 65.6392 17.2545C64.9801 17.0714 64.4217 16.8151 63.964 16.4855L64.829 14.7829C65.1952 15.0483 65.6209 15.2589 66.106 15.4145C66.5912 15.5701 67.081 15.6479 67.5753 15.6479C68.1337 15.6479 68.5731 15.5381 68.8935 15.3184C69.2139 15.0987 69.3741 14.7966 69.3741 14.4121C69.3741 14.0459 69.2322 13.7576 68.9484 13.547C68.6646 13.3365 68.2069 13.2312 67.5753 13.2312H66.5592V11.762L69.2368 8.72739L69.4839 9.5238H64.4446V7.73874H71.1729V9.18052L68.509 12.2151L67.383 11.5697H68.0284C69.2093 11.5697 70.1018 11.8352 70.706 12.3662C71.3102 12.8971 71.6123 13.5791 71.6123 14.4121C71.6123 14.9522 71.4704 15.4603 71.1866 15.9363C70.9028 16.4031 70.468 16.783 69.8821 17.076C69.2963 17.3689 68.5456 17.5154 67.6302 17.5154Z" fill="white"/>
<path d="M31.3103 24.8105V20.6194H33.2143C33.6693 20.6194 34.0705 20.7072 34.4177 20.8829C34.765 21.0545 35.0364 21.296 35.232 21.6073C35.4276 21.9187 35.5254 22.2879 35.5254 22.715C35.5254 23.1381 35.4276 23.5073 35.232 23.8226C35.0364 24.134 34.765 24.3775 34.4177 24.5531C34.0705 24.7247 33.6693 24.8105 33.2143 24.8105H31.3103ZM32.2802 24.0142H33.1664C33.4458 24.0142 33.6873 23.9623 33.8908 23.8586C34.0984 23.7508 34.2581 23.5991 34.3698 23.4035C34.4856 23.2079 34.5435 22.9784 34.5435 22.715C34.5435 22.4476 34.4856 22.218 34.3698 22.0264C34.2581 21.8309 34.0984 21.6812 33.8908 21.5774C33.6873 21.4696 33.4458 21.4157 33.1664 21.4157H32.2802V24.0142ZM37.7896 24.8584C37.4224 24.8584 37.0991 24.7866 36.8197 24.6429C36.5442 24.4992 36.3307 24.3036 36.179 24.0561C36.0273 23.8047 35.9515 23.5193 35.9515 23.2C35.9515 22.8766 36.0253 22.5912 36.173 22.3438C36.3247 22.0923 36.5303 21.8967 36.7897 21.757C37.0492 21.6133 37.3426 21.5415 37.6699 21.5415C37.9852 21.5415 38.2686 21.6093 38.5201 21.745C38.7755 21.8768 38.9771 22.0684 39.1248 22.3198C39.2725 22.5673 39.3463 22.8647 39.3463 23.2119C39.3463 23.2479 39.3443 23.2898 39.3403 23.3377C39.3363 23.3816 39.3323 23.4235 39.3283 23.4634H36.7119V22.9186H38.8374L38.4781 23.0802C38.4781 22.9126 38.4442 22.7669 38.3764 22.6431C38.3085 22.5194 38.2147 22.4236 38.095 22.3557C37.9752 22.2839 37.8355 22.248 37.6758 22.248C37.5162 22.248 37.3745 22.2839 37.2507 22.3557C37.131 22.4236 37.0372 22.5214 36.9693 22.6491C36.9015 22.7729 36.8676 22.9206 36.8676 23.0922V23.2359C36.8676 23.4115 36.9055 23.5672 36.9813 23.7029C37.0611 23.8346 37.1709 23.9364 37.3106 24.0082C37.4543 24.0761 37.622 24.11 37.8136 24.11C37.9852 24.11 38.1349 24.0841 38.2626 24.0322C38.3943 23.9803 38.5141 23.9025 38.6218 23.7987L39.1188 24.3375C38.9711 24.5052 38.7855 24.6349 38.562 24.7267C38.3384 24.8145 38.081 24.8584 37.7896 24.8584ZM40.7838 24.8105L39.4307 21.5894H40.3946L41.5203 24.3615H41.0413L42.2088 21.5894H43.1069L41.7478 24.8105H40.7838ZM44.9989 24.8584C44.6317 24.8584 44.3084 24.7866 44.029 24.6429C43.7536 24.4992 43.54 24.3036 43.3883 24.0561C43.2367 23.8047 43.1608 23.5193 43.1608 23.2C43.1608 22.8766 43.2347 22.5912 43.3824 22.3438C43.534 22.0923 43.7396 21.8967 43.9991 21.757C44.2585 21.6133 44.5519 21.5415 44.8792 21.5415C45.1945 21.5415 45.4779 21.6093 45.7294 21.745C45.9848 21.8768 46.1864 22.0684 46.3341 22.3198C46.4818 22.5673 46.5556 22.8647 46.5556 23.2119C46.5556 23.2479 46.5536 23.2898 46.5497 23.3377C46.5457 23.3816 46.5417 23.4235 46.5377 23.4634H43.9212V22.9186H46.0467L45.6875 23.0802C45.6875 22.9126 45.6535 22.7669 45.5857 22.6431C45.5178 22.5194 45.424 22.4236 45.3043 22.3557C45.1845 22.2839 45.0448 22.248 44.8852 22.248C44.7255 22.248 44.5838 22.2839 44.4601 22.3557C44.3403 22.4236 44.2465 22.5214 44.1787 22.6491C44.1108 22.7729 44.0769 22.9206 44.0769 23.0922V23.2359C44.0769 23.4115 44.1148 23.5672 44.1906 23.7029C44.2705 23.8346 44.3802 23.9364 44.52 24.0082C44.6636 24.0761 44.8313 24.11 45.0229 24.11C45.1945 24.11 45.3442 24.0841 45.4719 24.0322C45.6037 23.9803 45.7234 23.9025 45.8312 23.7987L46.3281 24.3375C46.1804 24.5052 45.9948 24.6349 45.7713 24.7267C45.5478 24.8145 45.2903 24.8584 44.9989 24.8584ZM47.1775 24.8105V20.368H48.1115V24.8105H47.1775ZM50.5111 24.8584C50.1678 24.8584 49.8625 24.7866 49.595 24.6429C49.3316 24.4992 49.122 24.3036 48.9664 24.0561C48.8147 23.8047 48.7389 23.5193 48.7389 23.2C48.7389 22.8766 48.8147 22.5912 48.9664 22.3438C49.122 22.0923 49.3316 21.8967 49.595 21.757C49.8625 21.6133 50.1678 21.5415 50.5111 21.5415C50.8504 21.5415 51.1537 21.6133 51.4212 21.757C51.6886 21.8967 51.8982 22.0903 52.0498 22.3378C52.2015 22.5853 52.2774 22.8727 52.2774 23.2C52.2774 23.5193 52.2015 23.8047 52.0498 24.0561C51.8982 24.3036 51.6886 24.4992 51.4212 24.6429C51.1537 24.7866 50.8504 24.8584 50.5111 24.8584ZM50.5111 24.0921C50.6668 24.0921 50.8065 24.0561 50.9302 23.9843C51.054 23.9124 51.1517 23.8107 51.2236 23.6789C51.2954 23.5432 51.3314 23.3836 51.3314 23.2C51.3314 23.0124 51.2954 22.8527 51.2236 22.721C51.1517 22.5893 51.054 22.4875 50.9302 22.4156C50.8065 22.3438 50.6668 22.3078 50.5111 22.3078C50.3554 22.3078 50.2157 22.3438 50.092 22.4156C49.9683 22.4875 49.8685 22.5893 49.7926 22.721C49.7208 22.8527 49.6849 23.0124 49.6849 23.2C49.6849 23.3836 49.7208 23.5432 49.7926 23.6789C49.8685 23.8107 49.9683 23.9124 50.092 23.9843C50.2157 24.0561 50.3554 24.0921 50.5111 24.0921ZM54.8056 24.8584C54.5342 24.8584 54.2967 24.7986 54.0932 24.6788C53.8896 24.5591 53.7299 24.3775 53.6142 24.134C53.5024 23.8865 53.4465 23.5752 53.4465 23.2C53.4465 22.8208 53.5004 22.5094 53.6082 22.2659C53.7159 22.0225 53.8716 21.8408 54.0752 21.7211C54.2788 21.6013 54.5222 21.5415 54.8056 21.5415C55.109 21.5415 55.3804 21.6113 55.6199 21.751C55.8634 21.8867 56.055 22.0783 56.1947 22.3258C56.3384 22.5733 56.4102 22.8647 56.4102 23.2C56.4102 23.5392 56.3384 23.8326 56.1947 24.0801C56.055 24.3276 55.8634 24.5192 55.6199 24.6549C55.3804 24.7906 55.109 24.8584 54.8056 24.8584ZM52.9017 25.9721V21.5894H53.7938V22.248L53.7758 23.2059L53.8357 24.1579V25.9721H52.9017ZM54.644 24.0921C54.7997 24.0921 54.9374 24.0561 55.0571 23.9843C55.1808 23.9124 55.2786 23.8107 55.3505 23.6789C55.4263 23.5432 55.4642 23.3836 55.4642 23.2C55.4642 23.0124 55.4263 22.8527 55.3505 22.721C55.2786 22.5893 55.1808 22.4875 55.0571 22.4156C54.9374 22.3438 54.7997 22.3078 54.644 22.3078C54.4883 22.3078 54.3486 22.3438 54.2249 22.4156C54.1011 22.4875 54.0033 22.5893 53.9315 22.721C53.8596 22.8527 53.8237 23.0124 53.8237 23.2C53.8237 23.3836 53.8596 23.5432 53.9315 23.6789C54.0033 23.8107 54.1011 23.9124 54.2249 23.9843C54.3486 24.0561 54.4883 24.0921 54.644 24.0921ZM58.6341 24.8584C58.2669 24.8584 57.9436 24.7866 57.6642 24.6429C57.3887 24.4992 57.1752 24.3036 57.0235 24.0561C56.8718 23.8047 56.796 23.5193 56.796 23.2C56.796 22.8766 56.8698 22.5912 57.0175 22.3438C57.1692 22.0923 57.3748 21.8967 57.6342 21.757C57.8937 21.6133 58.1871 21.5415 58.5144 21.5415C58.8297 21.5415 59.1131 21.6093 59.3646 21.745C59.62 21.8768 59.8216 22.0684 59.9693 22.3198C60.117 22.5673 60.1908 22.8647 60.1908 23.2119C60.1908 23.2479 60.1888 23.2898 60.1848 23.3377C60.1808 23.3816 60.1768 23.4235 60.1728 23.4634H57.5564V22.9186H59.6819L59.3226 23.0802C59.3226 22.9126 59.2887 22.7669 59.2209 22.6431C59.153 22.5194 59.0592 22.4236 58.9395 22.3557C58.8197 22.2839 58.68 22.248 58.5203 22.248C58.3607 22.248 58.219 22.2839 58.0952 22.3557C57.9755 22.4236 57.8817 22.5214 57.8138 22.6491C57.746 22.7729 57.7121 22.9206 57.7121 23.0922V23.2359C57.7121 23.4115 57.75 23.5672 57.8258 23.7029C57.9057 23.8346 58.0154 23.9364 58.1551 24.0082C58.2988 24.0761 58.4665 24.11 58.6581 24.11C58.8297 24.11 58.9794 24.0841 59.1071 24.0322C59.2388 23.9803 59.3586 23.9025 59.4663 23.7987L59.9633 24.3375C59.8156 24.5052 59.63 24.6349 59.4065 24.7267C59.1829 24.8145 58.9255 24.8584 58.6341 24.8584ZM60.8126 24.8105V21.5894H61.7048V22.4994L61.579 22.236C61.6748 22.0085 61.8285 21.8368 62.04 21.7211C62.2516 21.6013 62.5091 21.5415 62.8124 21.5415V22.4036C62.7725 22.3997 62.7366 22.3977 62.7046 22.3977C62.6727 22.3937 62.6388 22.3917 62.6029 22.3917C62.3474 22.3917 62.1398 22.4655 61.9802 22.6132C61.8245 22.7569 61.7467 22.9824 61.7467 23.2898V24.8105H60.8126ZM67.1584 24.8824C66.8351 24.8824 66.5337 24.8305 66.2543 24.7267C65.9789 24.619 65.7394 24.4673 65.5358 24.2717C65.3323 24.0761 65.1726 23.8466 65.0569 23.5831C64.9451 23.3197 64.8892 23.0303 64.8892 22.715C64.8892 22.3997 64.9451 22.1103 65.0569 21.8468C65.1726 21.5834 65.3323 21.3539 65.5358 21.1583C65.7434 20.9627 65.9849 20.813 66.2603 20.7092C66.5357 20.6015 66.8371 20.5476 67.1644 20.5476C67.5276 20.5476 67.8549 20.6114 68.1463 20.7392C68.4417 20.8629 68.6892 21.0465 68.8887 21.29L68.2661 21.8648C68.1224 21.7011 67.9627 21.5794 67.7871 21.4996C67.6114 21.4157 67.4199 21.3738 67.2123 21.3738C67.0167 21.3738 66.8371 21.4058 66.6734 21.4696C66.5098 21.5335 66.3681 21.6253 66.2483 21.745C66.1286 21.8648 66.0348 22.0065 65.9669 22.1701C65.9031 22.3338 65.8711 22.5154 65.8711 22.715C65.8711 22.9146 65.9031 23.0962 65.9669 23.2598C66.0348 23.4235 66.1286 23.5652 66.2483 23.6849C66.3681 23.8047 66.5098 23.8965 66.6734 23.9603C66.8371 24.0242 67.0167 24.0561 67.2123 24.0561C67.4199 24.0561 67.6114 24.0162 67.7871 23.9364C67.9627 23.8526 68.1224 23.7268 68.2661 23.5592L68.8887 24.134C68.6892 24.3775 68.4417 24.5631 68.1463 24.6908C67.8549 24.8185 67.5256 24.8824 67.1584 24.8824ZM69.4779 24.8105V20.368H70.4119V24.8105H69.4779ZM72.6379 24.8584C72.3704 24.8584 72.1309 24.8066 71.9194 24.7028C71.7118 24.599 71.5502 24.4413 71.4344 24.2298C71.3187 24.0142 71.2608 23.7408 71.2608 23.4095V21.5894H72.1948V23.2718C72.1948 23.5392 72.2507 23.7368 72.3625 23.8646C72.4782 23.9883 72.6399 24.0502 72.8474 24.0502C72.9911 24.0502 73.1189 24.0202 73.2306 23.9603C73.3424 23.8965 73.4302 23.8007 73.4941 23.673C73.5579 23.5412 73.5899 23.3776 73.5899 23.182V21.5894H74.5239V24.8105H73.6378V23.9244L73.7994 24.1819C73.6916 24.4054 73.532 24.575 73.3204 24.6908C73.1129 24.8026 72.8853 24.8584 72.6379 24.8584ZM77.2931 24.8584C77.0097 24.8584 76.7663 24.7986 76.5627 24.6788C76.3591 24.5591 76.2035 24.3775 76.0957 24.134C75.9879 23.8865 75.934 23.5752 75.934 23.2C75.934 22.8208 75.9899 22.5094 76.1017 22.2659C76.2174 22.0225 76.3771 21.8408 76.5807 21.7211C76.7842 21.6013 77.0217 21.5415 77.2931 21.5415C77.5965 21.5415 77.8679 21.6093 78.1074 21.745C78.3509 21.8808 78.5425 22.0723 78.6822 22.3198C78.8259 22.5673 78.8977 22.8607 78.8977 23.2C78.8977 23.5352 78.8259 23.8266 78.6822 24.0741C78.5425 24.3216 78.3509 24.5152 78.1074 24.6549C77.8679 24.7906 77.5965 24.8584 77.2931 24.8584ZM75.3892 24.8105V20.368H76.3232V22.242L76.2633 23.194L76.2813 24.1519V24.8105H75.3892ZM77.1315 24.0921C77.2872 24.0921 77.4249 24.0561 77.5446 23.9843C77.6684 23.9124 77.7661 23.8107 77.838 23.6789C77.9138 23.5432 77.9518 23.3836 77.9518 23.2C77.9518 23.0124 77.9138 22.8527 77.838 22.721C77.7661 22.5893 77.6684 22.4875 77.5446 22.4156C77.4249 22.3438 77.2872 22.3078 77.1315 22.3078C76.9758 22.3078 76.8361 22.3438 76.7124 22.4156C76.5886 22.4875 76.4908 22.5893 76.419 22.721C76.3472 22.8527 76.3112 23.0124 76.3112 23.2C76.3112 23.3836 76.3472 23.5432 76.419 23.6789C76.4908 23.8107 76.5886 23.9124 76.7124 23.9843C76.8361 24.0561 76.9758 24.0921 77.1315 24.0921ZM80.6067 24.8584C80.3313 24.8584 80.0659 24.8265 79.8104 24.7626C79.5589 24.6948 79.3593 24.611 79.2117 24.5112L79.523 23.8406C79.6707 23.9324 79.8443 24.0082 80.0439 24.0681C80.2475 24.124 80.447 24.1519 80.6426 24.1519C80.8582 24.1519 81.0099 24.126 81.0977 24.0741C81.1895 24.0222 81.2354 23.9504 81.2354 23.8586C81.2354 23.7827 81.1994 23.7268 81.1276 23.6909C81.0597 23.651 80.9679 23.6211 80.8522 23.6011C80.7364 23.5812 80.6087 23.5612 80.469 23.5412C80.3333 23.5213 80.1956 23.4953 80.0559 23.4634C79.9162 23.4275 79.7884 23.3756 79.6727 23.3077C79.5569 23.2399 79.4631 23.1481 79.3913 23.0323C79.3234 22.9166 79.2895 22.7669 79.2895 22.5833C79.2895 22.3797 79.3474 22.2001 79.4631 22.0444C79.5829 21.8887 79.7545 21.767 79.978 21.6792C80.2016 21.5874 80.469 21.5415 80.7803 21.5415C80.9999 21.5415 81.2234 21.5654 81.4509 21.6133C81.6784 21.6612 81.868 21.7311 82.0197 21.8229L81.7084 22.4875C81.5527 22.3957 81.395 22.3338 81.2354 22.3019C81.0797 22.2659 80.928 22.248 80.7803 22.248C80.5728 22.248 80.4211 22.2759 80.3253 22.3318C80.2295 22.3877 80.1816 22.4595 80.1816 22.5473C80.1816 22.6272 80.2155 22.687 80.2834 22.727C80.3552 22.7669 80.449 22.7988 80.5648 22.8228C80.6805 22.8467 80.8063 22.8687 80.942 22.8886C81.0817 22.9046 81.2214 22.9305 81.3611 22.9665C81.5008 23.0024 81.6265 23.0543 81.7383 23.1221C81.8541 23.186 81.9479 23.2758 82.0197 23.3916C82.0916 23.5033 82.1275 23.651 82.1275 23.8346C82.1275 24.0342 82.0676 24.2118 81.9479 24.3675C81.8281 24.5192 81.6545 24.6389 81.427 24.7267C81.2034 24.8145 80.93 24.8584 80.6067 24.8584Z" fill="white"/>
</svg>
