<svg width="14" height="15" viewBox="0 0 14 15" fill="none" xmlns="http://www.w3.org/2000/svg">
<path fill-rule="evenodd" clip-rule="evenodd" d="M7 14.357C7.9011 14.3592 8.79377 14.1834 9.62671 13.8396C10.4596 13.4958 11.2164 12.9908 11.8536 12.3536C12.4908 11.7164 12.9958 10.9596 13.3396 10.1267C13.6834 9.29377 13.8592 8.4011 13.857 7.5C13.8592 6.59889 13.6834 5.70623 13.3396 4.87328C12.9958 4.04034 12.4908 3.28354 11.8536 2.64636C11.2164 2.00919 10.4596 1.50419 9.62671 1.16039C8.79377 0.816584 7.9011 0.640754 7 0.642996C6.09889 0.640754 5.20623 0.816584 4.37328 1.16039C3.54034 1.50419 2.78354 2.00919 2.14636 2.64636C1.50919 3.28354 1.00419 4.04034 0.660387 4.87328C0.316584 5.70623 0.140754 6.59889 0.142996 7.5C0.140754 8.4011 0.316584 9.29377 0.660387 10.1267C1.00419 10.9596 1.50919 11.7164 2.14636 12.3536C2.78354 12.9908 3.54034 13.4958 4.37328 13.8396C5.20623 14.1834 6.09889 14.3592 7 14.357ZM8.886 8.584C8.886 7.586 8.286 7.243 7.086 7.101C6.229 6.986 6.057 6.758 6.057 6.356C6.057 5.957 6.344 5.7 6.914 5.7C7.429 5.7 7.716 5.871 7.857 6.3C7.887 6.386 7.973 6.441 8.059 6.441H8.513C8.53927 6.44181 8.56544 6.43729 8.58993 6.42773C8.61442 6.41817 8.63672 6.40375 8.6555 6.38535C8.67428 6.36695 8.68914 6.34494 8.69919 6.32065C8.70924 6.29636 8.71428 6.27028 8.714 6.244V6.214C8.599 5.584 8.084 4.984 7.429 4.928V4.298C7.429 4.183 7.343 4.097 7.201 4.071H6.824C6.709 4.071 6.601 4.157 6.572 4.298V4.928C5.714 5.044 5.144 5.7 5.144 6.416C5.144 7.358 5.71399 7.727 6.914 7.873C7.716 8.014 7.973 8.186 7.973 8.644C7.973 9.098 7.57 9.416 7.03 9.416C6.284 9.416 6.027 9.098 5.942 8.67C5.916 8.558 5.83 8.498 5.744 8.498H5.256C5.22962 8.49771 5.20346 8.50277 5.1791 8.51289C5.15474 8.523 5.13268 8.53795 5.11427 8.55684C5.09585 8.57572 5.08146 8.59814 5.07196 8.62275C5.06246 8.64736 5.05805 8.67364 5.059 8.7V8.73C5.17 9.441 5.629 9.93 6.572 10.071V10.706C6.572 10.821 6.657 10.898 6.799 10.928H7.21C7.321 10.928 7.399 10.851 7.429 10.706V10.071C8.286 9.93 8.886 9.356 8.886 8.584ZM4.114 10.72C4.529 11.1 5.014 11.394 5.543 11.585C5.629 11.645 5.714 11.757 5.714 11.842V12.245C5.714 12.301 5.714 12.331 5.684 12.356C5.659 12.472 5.543 12.528 5.427 12.472C4.38721 12.1409 3.4797 11.4876 2.83571 10.6066C2.19172 9.72569 1.84462 8.66273 1.84462 7.5715C1.84462 6.48026 2.19172 5.4173 2.83571 4.53636C3.4797 3.65541 4.38721 3.00213 5.427 2.671C5.457 2.645 5.513 2.645 5.543 2.645C5.659 2.671 5.714 2.756 5.714 2.872V3.271C5.714 3.416 5.659 3.502 5.543 3.558C4.95862 3.76867 4.42781 4.10548 3.9883 4.54447C3.54879 4.98346 3.21136 5.51387 3 6.098C2.70535 6.89165 2.65387 7.75511 2.8521 8.57815C3.05034 9.4012 3.48931 10.1465 4.113 10.719M8.315 2.785C8.34 2.67 8.456 2.614 8.572 2.67C9.35742 2.92564 10.0705 3.36505 10.6519 3.95171C11.2334 4.53836 11.6664 5.25532 11.915 6.043C12.1202 6.68638 12.1966 7.36393 12.1396 8.03685C12.0827 8.70978 11.8936 9.36486 11.5832 9.96462C11.2727 10.5644 10.8471 11.097 10.3306 11.5321C9.81404 11.9671 9.21679 12.296 8.573 12.5C8.543 12.526 8.487 12.526 8.457 12.526C8.341 12.5 8.286 12.415 8.286 12.299V11.9C8.286 11.755 8.341 11.669 8.457 11.613C9.04137 11.4023 9.57218 11.0655 10.0117 10.6265C10.4512 10.1875 10.7886 9.65713 11 9.073C11.196 8.54608 11.2856 7.98556 11.2637 7.42381C11.2418 6.86206 11.1089 6.31021 10.8725 5.80013C10.6362 5.29005 10.3011 4.83185 9.88669 4.45199C9.47226 4.07213 8.98668 3.77814 8.458 3.587C8.372 3.527 8.287 3.415 8.287 3.3V2.9C8.287 2.84 8.287 2.814 8.317 2.784" fill="#2775CA"/>
</svg>
