<svg width="83" height="38" viewBox="0 0 83 38" fill="none" xmlns="http://www.w3.org/2000/svg">
<path d="M29.0445 2.36111V6.06156L7.20203 22.8083V19.1079L29.0445 2.36111Z" fill="white"/>
<path d="M12.4346 7.75e-05V3.40598L6.03616 7.10572L3.0402 8.83813L0 7.19059L2.99597 5.45794L12.4346 7.75e-05Z" fill="white"/>
<path d="M12.4346 10.5733V13.9294L3.0402 8.83805L0 7.1905L2.99597 5.45786L6.03616 7.10564L12.4346 10.5733Z" fill="white"/>
<path d="M21.9692 32.7805V32.7807L20.4517 37.4143L18.9343 32.7807L14.3575 18.8041H17.3921L20.4517 28.1471L21.9692 32.7805Z" fill="white"/>
<path d="M26.546 18.804L21.9691 32.7804V32.7806L20.4517 37.4143L18.9343 32.7806L20.4517 28.147L23.5111 18.804H26.546Z" fill="white"/>
<path d="M34.3701 16.5576L31.2257 6.94577H33.5325L36.265 15.4591H35.1116L37.9677 6.94577H40.0274L42.7736 15.4591H41.6614L44.4626 6.94577H46.5909L43.4464 16.5576H41.0572L38.6268 9.08784H39.2584L36.7593 16.5576H34.3701ZM50.7981 16.6675C49.9559 16.6675 49.2144 16.5027 48.5737 16.1731C47.942 15.8436 47.4523 15.395 47.1044 14.8275C46.7566 14.2508 46.5826 13.5963 46.5826 12.8639C46.5826 12.1224 46.752 11.4679 47.0907 10.9004C47.4385 10.3237 47.91 9.8751 48.505 9.5547C49.1 9.22515 49.7728 9.06038 50.5235 9.06038C51.2467 9.06038 51.8966 9.216 52.4733 9.52724C53.0592 9.82933 53.5215 10.2687 53.8602 10.8454C54.1989 11.413 54.3682 12.095 54.3682 12.8914C54.3682 12.9738 54.3636 13.0699 54.3545 13.1797C54.3453 13.2804 54.3362 13.3766 54.327 13.4681H48.3265V12.2186H53.2011L52.3772 12.5893C52.3772 12.2048 52.2994 11.8707 52.1438 11.5869C51.9881 11.3031 51.773 11.0834 51.4984 10.9278C51.2238 10.763 50.9034 10.6807 50.5372 10.6807C50.171 10.6807 49.8461 10.763 49.5623 10.9278C49.2877 11.0834 49.0726 11.3077 48.9169 11.6007C48.7613 11.8844 48.6835 12.2231 48.6835 12.6168V12.9463C48.6835 13.3491 48.7705 13.7061 48.9444 14.0173C49.1275 14.3194 49.3792 14.5529 49.6996 14.7176C50.0292 14.8733 50.4136 14.9511 50.853 14.9511C51.2467 14.9511 51.5899 14.8916 51.8829 14.7726C52.185 14.6536 52.4596 14.4751 52.7067 14.237L53.8464 15.4729C53.5077 15.8573 53.0821 16.1548 52.5694 16.3654C52.0568 16.5668 51.4664 16.6675 50.7981 16.6675ZM60.1609 16.6675C59.5109 16.6675 58.9525 16.5302 58.4856 16.2555C58.0188 15.9809 57.6618 15.5644 57.4146 15.006C57.1675 14.4384 57.0439 13.7244 57.0439 12.8639C57.0439 11.9943 57.172 11.2803 57.4283 10.7219C57.6938 10.1635 58.06 9.74694 58.5268 9.47232C58.9937 9.19769 59.5384 9.06038 60.1609 9.06038C60.8566 9.06038 61.4791 9.216 62.0283 9.52724C62.5867 9.83848 63.0261 10.2779 63.3465 10.8454C63.676 11.413 63.8408 12.0858 63.8408 12.8639C63.8408 13.6329 63.676 14.3011 63.3465 14.8687C63.0261 15.4362 62.5867 15.8802 62.0283 16.2006C61.4791 16.5118 60.8566 16.6675 60.1609 16.6675ZM55.7943 16.5576V6.36906H57.9364V10.6669L57.7991 12.8502L57.8403 15.0472V16.5576H55.7943ZM59.7901 14.9099C60.1471 14.9099 60.4629 14.8275 60.7376 14.6627C61.0213 14.4979 61.2456 14.2645 61.4104 13.9624C61.5843 13.6512 61.6713 13.285 61.6713 12.8639C61.6713 12.4337 61.5843 12.0675 61.4104 11.7654C61.2456 11.4633 61.0213 11.2299 60.7376 11.0651C60.4629 10.9004 60.1471 10.818 59.7901 10.818C59.4331 10.818 59.1127 10.9004 58.8289 11.0651C58.5452 11.2299 58.3209 11.4633 58.1561 11.7654C57.9913 12.0675 57.9089 12.4337 57.9089 12.8639C57.9089 13.285 57.9913 13.6512 58.1561 13.9624C58.3209 14.2645 58.5452 14.4979 58.8289 14.6627C59.1127 14.8275 59.4331 14.9099 59.7901 14.9099ZM67.6302 16.7224C66.962 16.7224 66.2983 16.6354 65.6392 16.4615C64.9801 16.2784 64.4217 16.0221 63.964 15.6926L64.829 13.9899C65.1952 14.2554 65.6209 14.4659 66.106 14.6215C66.5912 14.7771 67.081 14.8549 67.5753 14.8549C68.1337 14.8549 68.5731 14.7451 68.8935 14.5254C69.2139 14.3057 69.3741 14.0036 69.3741 13.6191C69.3741 13.253 69.2322 12.9646 68.9484 12.7541C68.6646 12.5435 68.2069 12.4383 67.5753 12.4383H66.5592V10.969L69.2368 7.93442L69.4839 8.73083H64.4446V6.94577H71.1729V8.38755L68.509 11.4221L67.383 10.7768H68.0284C69.2093 10.7768 70.1018 11.0422 70.706 11.5732C71.3102 12.1041 71.6123 12.7861 71.6123 13.6191C71.6123 14.1592 71.4704 14.6673 71.1866 15.1433C70.9028 15.6102 70.468 15.9901 69.8821 16.283C69.2963 16.5759 68.5456 16.7224 67.6302 16.7224Z" fill="white"/>
<path d="M31.3103 24.0176V19.8265H33.2143C33.6693 19.8265 34.0705 19.9143 34.4177 20.0899C34.765 20.2615 35.0364 20.503 35.232 20.8144C35.4276 21.1257 35.5254 21.4949 35.5254 21.922C35.5254 22.3451 35.4276 22.7143 35.232 23.0297C35.0364 23.341 34.765 23.5845 34.4177 23.7601C34.0705 23.9318 33.6693 24.0176 33.2143 24.0176H31.3103ZM32.2802 23.2213H33.1664C33.4458 23.2213 33.6873 23.1694 33.8908 23.0656C34.0984 22.9578 34.2581 22.8061 34.3698 22.6106C34.4856 22.415 34.5435 22.1855 34.5435 21.922C34.5435 21.6546 34.4856 21.4251 34.3698 21.2335C34.2581 21.0379 34.0984 20.8882 33.8908 20.7844C33.6873 20.6767 33.4458 20.6228 33.1664 20.6228H32.2802V23.2213ZM37.7896 24.0655C37.4224 24.0655 37.0991 23.9936 36.8197 23.8499C36.5442 23.7062 36.3307 23.5107 36.179 23.2632C36.0273 23.0117 35.9515 22.7263 35.9515 22.407C35.9515 22.0837 36.0253 21.7983 36.173 21.5508C36.3247 21.2993 36.5303 21.1038 36.7897 20.964C37.0492 20.8204 37.3426 20.7485 37.6699 20.7485C37.9852 20.7485 38.2686 20.8164 38.5201 20.9521C38.7755 21.0838 38.9771 21.2754 39.1248 21.5269C39.2725 21.7743 39.3463 22.0717 39.3463 22.419C39.3463 22.4549 39.3443 22.4968 39.3403 22.5447C39.3363 22.5886 39.3323 22.6305 39.3283 22.6704H36.7119V22.1256H38.8374L38.4781 22.2872C38.4781 22.1196 38.4442 21.9739 38.3764 21.8502C38.3085 21.7264 38.2147 21.6306 38.095 21.5628C37.9752 21.4909 37.8355 21.455 37.6758 21.455C37.5162 21.455 37.3745 21.4909 37.2507 21.5628C37.131 21.6306 37.0372 21.7284 36.9693 21.8562C36.9015 21.9799 36.8676 22.1276 36.8676 22.2992V22.4429C36.8676 22.6185 36.9055 22.7742 36.9813 22.9099C37.0611 23.0416 37.1709 23.1434 37.3106 23.2153C37.4543 23.2831 37.622 23.3171 37.8136 23.3171C37.9852 23.3171 38.1349 23.2911 38.2626 23.2392C38.3943 23.1873 38.5141 23.1095 38.6218 23.0057L39.1188 23.5446C38.9711 23.7122 38.7855 23.842 38.562 23.9338C38.3384 24.0216 38.081 24.0655 37.7896 24.0655ZM40.7838 24.0176L39.4307 20.7964H40.3946L41.5203 23.5685H41.0413L42.2088 20.7964H43.1069L41.7478 24.0176H40.7838ZM44.9989 24.0655C44.6317 24.0655 44.3084 23.9936 44.029 23.8499C43.7536 23.7062 43.54 23.5107 43.3883 23.2632C43.2367 23.0117 43.1608 22.7263 43.1608 22.407C43.1608 22.0837 43.2347 21.7983 43.3824 21.5508C43.534 21.2993 43.7396 21.1038 43.9991 20.964C44.2585 20.8204 44.5519 20.7485 44.8792 20.7485C45.1945 20.7485 45.4779 20.8164 45.7294 20.9521C45.9848 21.0838 46.1864 21.2754 46.3341 21.5269C46.4818 21.7743 46.5556 22.0717 46.5556 22.419C46.5556 22.4549 46.5536 22.4968 46.5497 22.5447C46.5457 22.5886 46.5417 22.6305 46.5377 22.6704H43.9212V22.1256H46.0467L45.6875 22.2872C45.6875 22.1196 45.6535 21.9739 45.5857 21.8502C45.5178 21.7264 45.424 21.6306 45.3043 21.5628C45.1845 21.4909 45.0448 21.455 44.8852 21.455C44.7255 21.455 44.5838 21.4909 44.4601 21.5628C44.3403 21.6306 44.2465 21.7284 44.1787 21.8562C44.1108 21.9799 44.0769 22.1276 44.0769 22.2992V22.4429C44.0769 22.6185 44.1148 22.7742 44.1906 22.9099C44.2705 23.0416 44.3802 23.1434 44.52 23.2153C44.6636 23.2831 44.8313 23.3171 45.0229 23.3171C45.1945 23.3171 45.3442 23.2911 45.4719 23.2392C45.6037 23.1873 45.7234 23.1095 45.8312 23.0057L46.3281 23.5446C46.1804 23.7122 45.9948 23.842 45.7713 23.9338C45.5478 24.0216 45.2903 24.0655 44.9989 24.0655ZM47.1775 24.0176V19.575H48.1115V24.0176H47.1775ZM50.5111 24.0655C50.1678 24.0655 49.8625 23.9936 49.595 23.8499C49.3316 23.7062 49.122 23.5107 48.9664 23.2632C48.8147 23.0117 48.7389 22.7263 48.7389 22.407C48.7389 22.0837 48.8147 21.7983 48.9664 21.5508C49.122 21.2993 49.3316 21.1038 49.595 20.964C49.8625 20.8204 50.1678 20.7485 50.5111 20.7485C50.8504 20.7485 51.1537 20.8204 51.4212 20.964C51.6886 21.1038 51.8982 21.2973 52.0498 21.5448C52.2015 21.7923 52.2774 22.0797 52.2774 22.407C52.2774 22.7263 52.2015 23.0117 52.0498 23.2632C51.8982 23.5107 51.6886 23.7062 51.4212 23.8499C51.1537 23.9936 50.8504 24.0655 50.5111 24.0655ZM50.5111 23.2991C50.6668 23.2991 50.8065 23.2632 50.9302 23.1913C51.054 23.1195 51.1517 23.0177 51.2236 22.886C51.2954 22.7503 51.3314 22.5906 51.3314 22.407C51.3314 22.2194 51.2954 22.0597 51.2236 21.928C51.1517 21.7963 51.054 21.6945 50.9302 21.6227C50.8065 21.5508 50.6668 21.5149 50.5111 21.5149C50.3554 21.5149 50.2157 21.5508 50.092 21.6227C49.9683 21.6945 49.8685 21.7963 49.7926 21.928C49.7208 22.0597 49.6849 22.2194 49.6849 22.407C49.6849 22.5906 49.7208 22.7503 49.7926 22.886C49.8685 23.0177 49.9683 23.1195 50.092 23.1913C50.2157 23.2632 50.3554 23.2991 50.5111 23.2991ZM54.8056 24.0655C54.5342 24.0655 54.2967 24.0056 54.0932 23.8859C53.8896 23.7661 53.7299 23.5845 53.6142 23.341C53.5024 23.0935 53.4465 22.7822 53.4465 22.407C53.4465 22.0278 53.5004 21.7165 53.6082 21.473C53.7159 21.2295 53.8716 21.0479 54.0752 20.9281C54.2788 20.8084 54.5222 20.7485 54.8056 20.7485C55.109 20.7485 55.3804 20.8184 55.6199 20.9581C55.8634 21.0938 56.055 21.2854 56.1947 21.5328C56.3384 21.7803 56.4102 22.0717 56.4102 22.407C56.4102 22.7463 56.3384 23.0397 56.1947 23.2871C56.055 23.5346 55.8634 23.7262 55.6199 23.8619C55.3804 23.9976 55.109 24.0655 54.8056 24.0655ZM52.9017 25.1791V20.7964H53.7938V21.455L53.7758 22.413L53.8357 23.365V25.1791H52.9017ZM54.644 23.2991C54.7997 23.2991 54.9374 23.2632 55.0571 23.1913C55.1808 23.1195 55.2786 23.0177 55.3505 22.886C55.4263 22.7503 55.4642 22.5906 55.4642 22.407C55.4642 22.2194 55.4263 22.0597 55.3505 21.928C55.2786 21.7963 55.1808 21.6945 55.0571 21.6227C54.9374 21.5508 54.7997 21.5149 54.644 21.5149C54.4883 21.5149 54.3486 21.5508 54.2249 21.6227C54.1011 21.6945 54.0033 21.7963 53.9315 21.928C53.8596 22.0597 53.8237 22.2194 53.8237 22.407C53.8237 22.5906 53.8596 22.7503 53.9315 22.886C54.0033 23.0177 54.1011 23.1195 54.2249 23.1913C54.3486 23.2632 54.4883 23.2991 54.644 23.2991ZM58.6341 24.0655C58.2669 24.0655 57.9436 23.9936 57.6642 23.8499C57.3887 23.7062 57.1752 23.5107 57.0235 23.2632C56.8718 23.0117 56.796 22.7263 56.796 22.407C56.796 22.0837 56.8698 21.7983 57.0175 21.5508C57.1692 21.2993 57.3748 21.1038 57.6342 20.964C57.8937 20.8204 58.1871 20.7485 58.5144 20.7485C58.8297 20.7485 59.1131 20.8164 59.3646 20.9521C59.62 21.0838 59.8216 21.2754 59.9693 21.5269C60.117 21.7743 60.1908 22.0717 60.1908 22.419C60.1908 22.4549 60.1888 22.4968 60.1848 22.5447C60.1808 22.5886 60.1768 22.6305 60.1728 22.6704H57.5564V22.1256H59.6819L59.3226 22.2872C59.3226 22.1196 59.2887 21.9739 59.2209 21.8502C59.153 21.7264 59.0592 21.6306 58.9395 21.5628C58.8197 21.4909 58.68 21.455 58.5203 21.455C58.3607 21.455 58.219 21.4909 58.0952 21.5628C57.9755 21.6306 57.8817 21.7284 57.8138 21.8562C57.746 21.9799 57.7121 22.1276 57.7121 22.2992V22.4429C57.7121 22.6185 57.75 22.7742 57.8258 22.9099C57.9057 23.0416 58.0154 23.1434 58.1551 23.2153C58.2988 23.2831 58.4665 23.3171 58.6581 23.3171C58.8297 23.3171 58.9794 23.2911 59.1071 23.2392C59.2388 23.1873 59.3586 23.1095 59.4663 23.0057L59.9633 23.5446C59.8156 23.7122 59.63 23.842 59.4065 23.9338C59.1829 24.0216 58.9255 24.0655 58.6341 24.0655ZM60.8126 24.0176V20.7964H61.7048V21.7065L61.579 21.443C61.6748 21.2155 61.8285 21.0439 62.04 20.9281C62.2516 20.8084 62.5091 20.7485 62.8124 20.7485V21.6107C62.7725 21.6067 62.7366 21.6047 62.7046 21.6047C62.6727 21.6007 62.6388 21.5987 62.6029 21.5987C62.3474 21.5987 62.1398 21.6725 61.9802 21.8202C61.8245 21.9639 61.7467 22.1895 61.7467 22.4968V24.0176H60.8126ZM67.1584 24.0894C66.8351 24.0894 66.5337 24.0375 66.2543 23.9338C65.9789 23.826 65.7394 23.6743 65.5358 23.4787C65.3323 23.2831 65.1726 23.0536 65.0569 22.7902C64.9451 22.5267 64.8892 22.2374 64.8892 21.922C64.8892 21.6067 64.9451 21.3173 65.0569 21.0539C65.1726 20.7904 65.3323 20.5609 65.5358 20.3653C65.7434 20.1697 65.9849 20.02 66.2603 19.9163C66.5357 19.8085 66.8371 19.7546 67.1644 19.7546C67.5276 19.7546 67.8549 19.8185 68.1463 19.9462C68.4417 20.0699 68.6892 20.2536 68.8887 20.497L68.2661 21.0718C68.1224 20.9082 67.9627 20.7864 67.7871 20.7066C67.6114 20.6228 67.4199 20.5809 67.2123 20.5809C67.0167 20.5809 66.8371 20.6128 66.6734 20.6767C66.5098 20.7405 66.3681 20.8323 66.2483 20.9521C66.1286 21.0718 66.0348 21.2135 65.9669 21.3772C65.9031 21.5408 65.8711 21.7224 65.8711 21.922C65.8711 22.1216 65.9031 22.3032 65.9669 22.4669C66.0348 22.6305 66.1286 22.7722 66.2483 22.892C66.3681 23.0117 66.5098 23.1035 66.6734 23.1674C66.8371 23.2312 67.0167 23.2632 67.2123 23.2632C67.4199 23.2632 67.6114 23.2233 67.7871 23.1434C67.9627 23.0596 68.1224 22.9339 68.2661 22.7662L68.8887 23.341C68.6892 23.5845 68.4417 23.7701 68.1463 23.8978C67.8549 24.0256 67.5256 24.0894 67.1584 24.0894ZM69.4779 24.0176V19.575H70.4119V24.0176H69.4779ZM72.6379 24.0655C72.3704 24.0655 72.1309 24.0136 71.9194 23.9098C71.7118 23.806 71.5502 23.6484 71.4344 23.4368C71.3187 23.2213 71.2608 22.9478 71.2608 22.6165V20.7964H72.1948V22.4788C72.1948 22.7463 72.2507 22.9439 72.3625 23.0716C72.4782 23.1953 72.6399 23.2572 72.8474 23.2572C72.9911 23.2572 73.1189 23.2273 73.2306 23.1674C73.3424 23.1035 73.4302 23.0077 73.4941 22.88C73.5579 22.7483 73.5899 22.5846 73.5899 22.389V20.7964H74.5239V24.0176H73.6378V23.1315L73.7994 23.3889C73.6916 23.6124 73.532 23.7821 73.3204 23.8978C73.1129 24.0096 72.8853 24.0655 72.6379 24.0655ZM77.2931 24.0655C77.0097 24.0655 76.7663 24.0056 76.5627 23.8859C76.3591 23.7661 76.2035 23.5845 76.0957 23.341C75.9879 23.0935 75.934 22.7822 75.934 22.407C75.934 22.0278 75.9899 21.7165 76.1017 21.473C76.2174 21.2295 76.3771 21.0479 76.5807 20.9281C76.7842 20.8084 77.0217 20.7485 77.2931 20.7485C77.5965 20.7485 77.8679 20.8164 78.1074 20.9521C78.3509 21.0878 78.5425 21.2794 78.6822 21.5269C78.8259 21.7743 78.8977 22.0677 78.8977 22.407C78.8977 22.7423 78.8259 23.0337 78.6822 23.2811C78.5425 23.5286 78.3509 23.7222 78.1074 23.8619C77.8679 23.9976 77.5965 24.0655 77.2931 24.0655ZM75.3892 24.0176V19.575H76.3232V21.449L76.2633 22.401L76.2813 23.359V24.0176H75.3892ZM77.1315 23.2991C77.2872 23.2991 77.4249 23.2632 77.5446 23.1913C77.6684 23.1195 77.7661 23.0177 77.838 22.886C77.9138 22.7503 77.9518 22.5906 77.9518 22.407C77.9518 22.2194 77.9138 22.0597 77.838 21.928C77.7661 21.7963 77.6684 21.6945 77.5446 21.6227C77.4249 21.5508 77.2872 21.5149 77.1315 21.5149C76.9758 21.5149 76.8361 21.5508 76.7124 21.6227C76.5886 21.6945 76.4908 21.7963 76.419 21.928C76.3472 22.0597 76.3112 22.2194 76.3112 22.407C76.3112 22.5906 76.3472 22.7503 76.419 22.886C76.4908 23.0177 76.5886 23.1195 76.7124 23.1913C76.8361 23.2632 76.9758 23.2991 77.1315 23.2991ZM80.6067 24.0655C80.3313 24.0655 80.0659 24.0335 79.8104 23.9697C79.5589 23.9018 79.3593 23.818 79.2117 23.7182L79.523 23.0476C79.6707 23.1394 79.8443 23.2153 80.0439 23.2752C80.2475 23.331 80.447 23.359 80.6426 23.359C80.8582 23.359 81.0099 23.333 81.0977 23.2811C81.1895 23.2292 81.2354 23.1574 81.2354 23.0656C81.2354 22.9898 81.1994 22.9339 81.1276 22.898C81.0597 22.858 80.9679 22.8281 80.8522 22.8081C80.7364 22.7882 80.6087 22.7682 80.469 22.7483C80.3333 22.7283 80.1956 22.7024 80.0559 22.6704C79.9162 22.6345 79.7884 22.5826 79.6727 22.5148C79.5569 22.4469 79.4631 22.3551 79.3913 22.2393C79.3234 22.1236 79.2895 21.9739 79.2895 21.7903C79.2895 21.5867 79.3474 21.4071 79.4631 21.2514C79.5829 21.0958 79.7545 20.974 79.978 20.8862C80.2016 20.7944 80.469 20.7485 80.7803 20.7485C80.9999 20.7485 81.2234 20.7725 81.4509 20.8204C81.6784 20.8683 81.868 20.9381 82.0197 21.0299L81.7084 21.6945C81.5527 21.6027 81.395 21.5408 81.2354 21.5089C81.0797 21.473 80.928 21.455 80.7803 21.455C80.5728 21.455 80.4211 21.4829 80.3253 21.5388C80.2295 21.5947 80.1816 21.6666 80.1816 21.7544C80.1816 21.8342 80.2155 21.8941 80.2834 21.934C80.3552 21.9739 80.449 22.0058 80.5648 22.0298C80.6805 22.0537 80.8063 22.0757 80.942 22.0957C81.0817 22.1116 81.2214 22.1376 81.3611 22.1735C81.5008 22.2094 81.6265 22.2613 81.7383 22.3292C81.8541 22.393 81.9479 22.4828 82.0197 22.5986C82.0916 22.7103 82.1275 22.858 82.1275 23.0416C82.1275 23.2412 82.0676 23.4188 81.9479 23.5745C81.8281 23.7262 81.6545 23.8459 81.427 23.9338C81.2034 24.0216 80.93 24.0655 80.6067 24.0655Z" fill="white"/>
</svg>